<svg width="256" height="256" viewBox="0 0 256 256" fill="none" xmlns="http://www.w3.org/2000/svg">
<path d="M43 9H119L81 77L43 9Z" fill="#6347F5" fill-opacity="0.8"/>
<path d="M5 77H81L43 145L5 77Z" fill="#6347F5" fill-opacity="0.8"/>
<path d="M5 77H81L43 9L5 77Z" fill="#6347F5"/>
<path d="M81 77H157L119 9L81 77Z" fill="#6347F5" fill-opacity="0.6"/>
<path d="M209 251L133 251L171 183L209 251Z" fill="#6347F5" fill-opacity="0.8"/>
<path d="M247 183L171 183L209 115L247 183Z" fill="#6347F5" fill-opacity="0.8"/>
<path d="M247 183L171 183L209 251L247 183Z" fill="#6347F5"/>
<path d="M171 183L95 183L133 251L171 183Z" fill="#6347F5" fill-opacity="0.6"/>
<rect x="61" y="65" width="130" height="130" fill="#6347F5"/>
<rect x="73" y="169" width="62" height="8" fill="white"/>
<path d="M73 147V87.3637H108.991V93.7699H80.2216V113.921H107.128V120.327H80.2216V140.594H109.457V147H73Z" fill="white"/>
<path d="M154.621 102.273C154.272 99.322 152.855 97.0313 150.37 95.4006C147.885 93.7699 144.837 92.9546 141.227 92.9546C138.586 92.9546 136.276 93.3817 134.296 94.2358C132.335 95.09 130.802 96.2645 129.695 97.7593C128.608 99.2541 128.065 100.953 128.065 102.855C128.065 104.447 128.443 105.816 129.2 106.961C129.977 108.087 130.967 109.028 132.17 109.786C133.374 110.523 134.636 111.135 135.956 111.62C137.276 112.086 138.489 112.465 139.596 112.756L145.653 114.386C147.206 114.794 148.933 115.357 150.836 116.075C152.758 116.794 154.592 117.774 156.339 119.016C158.106 120.239 159.562 121.812 160.707 123.734C161.853 125.656 162.425 128.014 162.425 130.81C162.425 134.032 161.581 136.944 159.892 139.546C158.223 142.147 155.777 144.214 152.554 145.748C149.351 147.282 145.459 148.048 140.877 148.048C136.606 148.048 132.908 147.359 129.783 145.981C126.677 144.603 124.231 142.681 122.445 140.215C120.678 137.75 119.678 134.886 119.445 131.625H126.9C127.094 133.877 127.851 135.741 129.171 137.216C130.511 138.672 132.2 139.759 134.238 140.477C136.296 141.176 138.509 141.526 140.877 141.526C143.634 141.526 146.109 141.079 148.303 140.186C150.496 139.274 152.234 138.012 153.515 136.401C154.796 134.77 155.437 132.867 155.437 130.693C155.437 128.713 154.884 127.102 153.777 125.859C152.67 124.617 151.214 123.608 149.409 122.831C147.604 122.054 145.653 121.375 143.556 120.793L136.218 118.696C131.559 117.357 127.871 115.444 125.153 112.96C122.435 110.475 121.076 107.223 121.076 103.205C121.076 99.8656 121.979 96.9536 123.784 94.4688C125.609 91.9645 128.055 90.0232 131.122 88.6449C134.209 87.2472 137.655 86.5483 141.46 86.5483C145.303 86.5483 148.72 87.2375 151.71 88.6158C154.699 89.9747 157.067 91.8383 158.815 94.2067C160.581 96.5751 161.513 99.2638 161.61 102.273H154.621Z" fill="white"/>
</svg>
