<svg width="256" height="256" viewBox="0 0 256 256" fill="none" xmlns="http://www.w3.org/2000/svg">
<path d="M43 9H119L81 77L43 9Z" fill="#6347F5" fill-opacity="0.8"/>
<path d="M5 77H81L43 145L5 77Z" fill="#6347F5" fill-opacity="0.8"/>
<path d="M5 77H81L43 9L5 77Z" fill="#6347F5"/>
<path d="M81 77H157L119 9L81 77Z" fill="#6347F5" fill-opacity="0.6"/>
<path d="M209 251H133L171 183L209 251Z" fill="#6347F5" fill-opacity="0.8"/>
<path d="M247 183H171L209 115L247 183Z" fill="#6347F5" fill-opacity="0.8"/>
<path d="M247 183H171L209 251L247 183Z" fill="#6347F5"/>
<path d="M171 183H95L133 251L171 183Z" fill="#6347F5" fill-opacity="0.6"/>
<path d="M191 65H61V195H191V65Z" fill="#6347F5"/>
<path d="M135 169H73V177H135V169Z" fill="white"/>
<path d="M154.621 102.273C154.272 99.3216 152.855 97.0308 150.37 95.4001C147.885 93.7694 144.837 92.9541 141.227 92.9541C138.586 92.9541 136.276 93.3813 134.296 94.2354C132.335 95.0896 130.802 96.2641 129.695 97.7589C128.608 99.2537 128.065 100.953 128.065 102.855C128.065 104.447 128.443 105.816 129.2 106.961C129.977 108.087 130.967 109.028 132.17 109.786C133.374 110.523 134.636 111.135 135.956 111.62C137.276 112.086 138.489 112.465 139.596 112.756L145.653 114.386C147.206 114.794 148.933 115.357 150.836 116.075C152.758 116.794 154.592 117.774 156.339 119.016C158.106 120.239 159.562 121.812 160.707 123.734C161.853 125.656 162.425 128.014 162.425 130.81C162.425 134.032 161.581 136.944 159.892 139.546C158.223 142.147 155.777 144.214 152.554 145.748C149.351 147.282 145.459 148.048 140.877 148.048C136.606 148.048 132.908 147.359 129.783 145.981C126.677 144.603 124.231 142.681 122.445 140.215C120.678 137.75 119.678 134.886 119.445 131.625H126.9C127.094 133.877 127.851 135.741 129.171 137.216C130.511 138.672 132.2 139.759 134.238 140.477C136.296 141.176 138.509 141.526 140.877 141.526C143.634 141.526 146.109 141.079 148.303 140.186C150.496 139.274 152.234 138.012 153.515 136.401C154.796 134.77 155.437 132.867 155.437 130.693C155.437 128.713 154.884 127.102 153.777 125.859C152.67 124.617 151.214 123.608 149.409 122.831C147.604 122.054 145.653 121.375 143.556 120.793L136.218 118.696C131.559 117.357 127.871 115.444 125.153 112.96C122.435 110.475 121.076 107.223 121.076 103.205C121.076 99.8652 121.979 96.9532 123.784 94.4684C125.609 91.9641 128.055 90.0227 131.122 88.6444C134.209 87.2467 137.655 86.5479 141.46 86.5479C145.303 86.5479 148.72 87.237 151.71 88.6153C154.699 89.9742 157.067 91.8379 158.815 94.2063C160.581 96.5747 161.513 99.2634 161.61 102.273H154.621Z" fill="white"/>
<path d="M69.96 93.7695V87.3633H114.687V93.7695H95.9344V147H88.7128V93.7695H69.96Z" fill="white"/>
</svg>
